{
	"asset":{
		"generator":"Khronos glTF Blender I/O v4.4.56",
		"version":"2.0"
	},
	"extensionsUsed":[
		"KHR_materials_specular"
	],
	"scene":0,
	"scenes":[
		{
			"name":"Scene",
			"nodes":[
				0
			]
		}
	],
	"nodes":[
		{
			"mesh":0,
			"name":"unamed"
		}
	],
	"materials":[
		{
			"alphaMode":"BLEND",
			"doubleSided":true,
			"extensions":{
				"KHR_materials_specular":{
					"specularFactor":0
				}
			},
			"name":"material_0mat",
			"pbrMetallicRoughness":{
				"baseColorTexture":{
					"index":0
				},
				"roughnessFactor":0.5527864098548889
			}
		},
		{
			"alphaMode":"BLEND",
			"doubleSided":true,
			"extensions":{
				"KHR_materials_specular":{
					"specularFactor":0
				}
			},
			"name":"material_1mat",
			"pbrMetallicRoughness":{
				"baseColorTexture":{
					"index":1
				},
				"roughnessFactor":0.5527864098548889
			}
		},
		{
			"alphaMode":"BLEND",
			"doubleSided":true,
			"extensions":{
				"KHR_materials_specular":{
					"specularFactor":0
				}
			},
			"name":"material_2mat",
			"pbrMetallicRoughness":{
				"baseColorTexture":{
					"index":2
				},
				"roughnessFactor":0.5527864098548889
			}
		},
		{
			"alphaMode":"BLEND",
			"doubleSided":true,
			"extensions":{
				"KHR_materials_specular":{
					"specularFactor":0
				}
			},
			"name":"material_3mat",
			"pbrMetallicRoughness":{
				"baseColorTexture":{
					"index":3
				},
				"roughnessFactor":0.5527864098548889
			}
		}
	],
	"meshes":[
		{
			"name":"unamedmesh",
			"primitives":[
				{
					"attributes":{
						"POSITION":0,
						"NORMAL":1,
						"TEXCOORD_0":2
					},
					"indices":3,
					"material":0
				},
				{
					"attributes":{
						"POSITION":4,
						"NORMAL":5,
						"TEXCOORD_0":6
					},
					"indices":7,
					"material":1
				},
				{
					"attributes":{
						"POSITION":8,
						"NORMAL":9,
						"TEXCOORD_0":10
					},
					"indices":11,
					"material":2
				},
				{
					"attributes":{
						"POSITION":12,
						"NORMAL":13,
						"TEXCOORD_0":14
					},
					"indices":15,
					"material":3
				}
			]
		}
	],
	"textures":[
		{
			"sampler":0,
			"source":0
		},
		{
			"sampler":0,
			"source":1
		},
		{
			"sampler":0,
			"source":2
		},
		{
			"sampler":0,
			"source":3
		}
	],
	"images":[
		{
			"mimeType":"image/png",
			"name":"face_final_eyel_hi",
			"uri":"face_final_eyel_hi.png"
		},
		{
			"mimeType":"image/png",
			"name":"face_final_eyer_hi",
			"uri":"face_final_eyer_hi.png"
		},
		{
			"mimeType":"image/png",
			"name":"face_final_df",
			"uri":"face_final_df.png"
		},
		{
			"mimeType":"image/png",
			"name":"bodice_final_df_mirror",
			"uri":"bodice_final_df_mirror.png"
		}
	],
	"accessors":[
		{
			"bufferView":0,
			"componentType":5126,
			"count":171,
			"max":[
				-1.6101382970809937,
				10.433082580566406,
				-75.77791595458984
			],
			"min":[
				-3.8433802127838135,
				9.589003562927246,
				-76.82880401611328
			],
			"type":"VEC3"
		},
		{
			"bufferView":1,
			"componentType":5126,
			"count":171,
			"type":"VEC3"
		},
		{
			"bufferView":2,
			"componentType":5126,
			"count":171,
			"type":"VEC2"
		},
		{
			"bufferView":3,
			"componentType":5123,
			"count":924,
			"type":"SCALAR"
		},
		{
			"bufferView":4,
			"componentType":5126,
			"count":171,
			"max":[
				3.8529436588287354,
				10.423248291015625,
				-75.78102111816406
			],
			"min":[
				1.6995536088943481,
				9.565105438232422,
				-76.83750915527344
			],
			"type":"VEC3"
		},
		{
			"bufferView":5,
			"componentType":5126,
			"count":171,
			"type":"VEC3"
		},
		{
			"bufferView":6,
			"componentType":5126,
			"count":171,
			"type":"VEC2"
		},
		{
			"bufferView":7,
			"componentType":5123,
			"count":924,
			"type":"SCALAR"
		},
		{
			"bufferView":8,
			"componentType":5126,
			"count":1546,
			"max":[
				7.858493804931641,
				13.750993728637695,
				-61.631935119628906
			],
			"min":[
				-7.878669261932373,
				-5.97774076461792,
				-85.45104217529297
			],
			"type":"VEC3"
		},
		{
			"bufferView":9,
			"componentType":5126,
			"count":1546,
			"type":"VEC3"
		},
		{
			"bufferView":10,
			"componentType":5126,
			"count":1546,
			"type":"VEC2"
		},
		{
			"bufferView":11,
			"componentType":5123,
			"count":8340,
			"type":"SCALAR"
		},
		{
			"bufferView":12,
			"componentType":5126,
			"count":5419,
			"max":[
				67.69456481933594,
				18.797733306884766,
				88.14915466308594
			],
			"min":[
				-67.68038177490234,
				-14.447088241577148,
				-64.5596694946289
			],
			"type":"VEC3"
		},
		{
			"bufferView":13,
			"componentType":5126,
			"count":5419,
			"type":"VEC3"
		},
		{
			"bufferView":14,
			"componentType":5126,
			"count":5419,
			"type":"VEC2"
		},
		{
			"bufferView":15,
			"componentType":5123,
			"count":30786,
			"type":"SCALAR"
		}
	],
	"bufferViews":[
		{
			"buffer":0,
			"byteLength":2052,
			"byteOffset":0,
			"target":34962
		},
		{
			"buffer":0,
			"byteLength":2052,
			"byteOffset":2052,
			"target":34962
		},
		{
			"buffer":0,
			"byteLength":1368,
			"byteOffset":4104,
			"target":34962
		},
		{
			"buffer":0,
			"byteLength":1848,
			"byteOffset":5472,
			"target":34963
		},
		{
			"buffer":0,
			"byteLength":2052,
			"byteOffset":7320,
			"target":34962
		},
		{
			"buffer":0,
			"byteLength":2052,
			"byteOffset":9372,
			"target":34962
		},
		{
			"buffer":0,
			"byteLength":1368,
			"byteOffset":11424,
			"target":34962
		},
		{
			"buffer":0,
			"byteLength":1848,
			"byteOffset":12792,
			"target":34963
		},
		{
			"buffer":0,
			"byteLength":18552,
			"byteOffset":14640,
			"target":34962
		},
		{
			"buffer":0,
			"byteLength":18552,
			"byteOffset":33192,
			"target":34962
		},
		{
			"buffer":0,
			"byteLength":12368,
			"byteOffset":51744,
			"target":34962
		},
		{
			"buffer":0,
			"byteLength":16680,
			"byteOffset":64112,
			"target":34963
		},
		{
			"buffer":0,
			"byteLength":65028,
			"byteOffset":80792,
			"target":34962
		},
		{
			"buffer":0,
			"byteLength":65028,
			"byteOffset":145820,
			"target":34962
		},
		{
			"buffer":0,
			"byteLength":43352,
			"byteOffset":210848,
			"target":34962
		},
		{
			"buffer":0,
			"byteLength":61572,
			"byteOffset":254200,
			"target":34963
		}
	],
	"samplers":[
		{
			"magFilter":9729,
			"minFilter":9987
		}
	],
	"buffers":[
		{
			"byteLength":315772,
			"uri":"masha1_NoFinger_JumpingDown_rest.bin"
		}
	]
}
